<svg width="20" height="20" viewBox="0 0 20 20" fill="none" xmlns="http://www.w3.org/2000/svg">
<path d="M5.50414 10.81C5.52214 10.825 8.38914 7.961 8.38914 7.929C8.38914 7.897 3.34214 2.855 2.08014 1.622C1.61814 1.172 1.21814 0.802 1.19514 0.802C1.11243 0.846996 1.03964 0.908218 0.98114 0.982C0.641867 1.35765 0.385625 1.80062 0.22914 2.282C0.17014 2.451 0.12914 2.59 0.12914 2.59C0.124197 2.63992 0.115506 2.68939 0.10314 2.738C-0.0217891 3.29128 -0.0333551 3.86413 0.0691395 4.422C0.282139 5.438 0.596139 5.882 2.38214 7.686C2.97214 8.284 5.39914 10.707 5.50414 10.81ZM12.3991 9.181C12.4751 9.20699 12.5437 9.25089 12.5991 9.309C12.8032 9.50073 13.0436 9.64959 13.3062 9.74677C13.5688 9.84396 13.8482 9.8875 14.1279 9.87482C14.4076 9.86214 14.6819 9.7935 14.9346 9.67295C15.1873 9.55241 15.4133 9.3824 15.5991 9.173C15.9901 8.835 16.1881 8.642 18.0991 6.738L19.9991 4.842L19.5221 4.36C19.2621 4.093 19.0421 3.88 19.0361 3.886C19.0301 3.892 18.2781 4.638 17.3661 5.547L15.7071 7.203L15.2331 6.735C15.0683 6.57808 14.9096 6.41496 14.7571 6.246C14.7571 6.237 15.5001 5.479 16.4121 4.567L18.0651 2.908L17.5991 2.431C17.4426 2.26687 17.2805 2.10811 17.1131 1.955C17.1041 1.955 16.3491 2.701 15.4371 3.61L13.7731 5.269L13.2881 4.789L12.8021 4.309L14.4601 2.651C15.0188 2.09764 15.5718 1.53861 16.1191 0.974C16.1191 0.965 15.5441 0.374 15.2541 0.095L15.1541 0L14.1891 0.983C12.2281 2.988 11.3571 3.892 10.8631 4.443C10.7681 4.549 10.6791 4.643 10.6701 4.65C10.6067 4.71785 10.5457 4.7879 10.4871 4.86C10.2982 5.11095 10.1778 5.40675 10.1379 5.71831C10.0979 6.02988 10.1397 6.34648 10.2591 6.637C10.3662 6.89635 10.5003 7.14371 10.6591 7.375C10.6711 7.384 10.7331 7.449 10.7991 7.517L10.9171 7.641L5.94814 12.614L0.97814 17.584L1.70114 18.313L2.42114 19.044L5.97514 15.49L9.52614 11.939L13.0571 15.469C14.2385 16.6544 15.4251 17.8344 16.6171 19.009C16.6321 19.015 18.0171 17.649 18.0381 17.593C18.0441 17.578 16.4571 15.973 14.5111 14.027L10.9741 10.488L11.5221 9.946C12.2631 9.211 12.2991 9.181 12.3991 9.181Z" fill="#1E0342"/>
</svg>
